# xmcd
#
# Track frame offsets: 
#        150
#        14810
#        28771
#        43620
#        57672
#        70809
#        82613
#        93964
#        107659
#        122901
#        136587
#        148903
#        164049
#        176558
#        189728
#        203404
#        217985
#        233433
#        245567
#        260241
#
# Disc length: 3648 seconds
#
# Revision: 0
# Processed by: cddbd v1.5.2PL0 Copyright (c) Steve Scherf et al.
# Submitted via: ExactAudioCopy v0.95b3
#
DISCID=210e3e14
DTITLE=Various Artist - Singin' The Blues
DYEAR=2001
DGENRE=Blues
TTITLE0=Helen Humes - Unlucky Woman
TTITLE1=John Lee Hooker - Louise
TTITLE2=Billie Holiday - Baby Get Lost
TTITLE3=Jack Teagarden - St. Louis Blues
TTITLE4=Martha Davis - I Ain't Gettin' Any Younger
TTITLE5=B.B. King - Hard Working Woman
TTITLE6=Sister Rosetta Tharpe - Trouble In Mind
TTITLE7=Cousin Joe - Bad Luck Blues
TTITLE8=Dinah Washington - Blow Top Blues
TTITLE9=Joe Williams - Kansas City Blues
TTITLE10=Memphis Slim - Mother Earth
TTITLE11=Ruby Smith - Fruit Cakin' Mama
TTITLE12=Louis Jordan - How Blue Can You Get
TTITLE13=Joe Turner - Rainy Day Blues
TTITLE14=Kay Starr - Share Croppin' Blues
TTITLE15=Yack Taylor - Things 'Bout Comin' My Way
TTITLE16=Josh White - Jelly Jelly
TTITLE17=Ruth Brown - R.B.Blues
TTITLE18=Woody Herman - Blues In The Night
TTITLE19=Bing Crosby and Connie Boswell - Basin Street Blues
EXTD=
EXTT0=
EXTT1=
EXTT2=
EXTT3=
EXTT4=
EXTT5=
EXTT6=
EXTT7=
EXTT8=
EXTT9=
EXTT10=
EXTT11=
EXTT12=
EXTT13=
EXTT14=
EXTT15=
EXTT16=
EXTT17=
EXTT18=
EXTT19=
PLAYORDER=
